<?xml version="1.0" encoding="UTF-8" standalone="no"?>
<svg width="260px" height="42px" viewBox="0 0 260 42" version="1.1" xmlns="http://www.w3.org/2000/svg" xmlns:xlink="http://www.w3.org/1999/xlink">
    <!-- Generator: Sketch 3.8.3 (29802) - http://www.bohemiancoding.com/sketch -->
    <title>logo_stadt_winterthur</title>
    <desc>Created with Sketch.</desc>
    <defs></defs>
    <g id="Page-1" stroke="none" stroke-width="1" fill="none" fill-rule="evenodd">
        <g id="iPad-Portrait" transform="translate(-45.000000, -47.000000)">
            <g id="logo_stadt_winterthur" transform="translate(45.000000, 47.000000)">
                <g id="Loi" transform="translate(163.647059, 0.000000)" fill="#FF1900">
                    <path d="M42.9474118,0.00367058824 C42.9474118,0.00367058824 57.2642353,27.8374353 64.1588235,41.5593176 C60.5769412,41.5501412 56.9965882,41.5501412 53.4972941,41.5501412 L53.2250588,41.5593176 C49.1078824,33.1292 32.0365882,0.0052 32.0365882,0.0052 C32.0365882,0.0052 39.2997647,-0.00550588235 42.9474118,0.00367058824" id="Fill-1"></path>
                    <path d="M27.4911765,31.5676706 L32.5045882,41.5424941 C31.8041176,41.5501412 21.7207059,41.5424941 21.7207059,41.5424941 C14.7068235,27.8236706 0.546,0.00367058824 0.546,0.00367058824 L11.2289412,0.00367058824 C11.2289412,0.00367058824 27.0002353,30.5154353 27.4911765,31.5676706" id="Fill-4"></path>
                    <path d="M91.3349412,31.5676706 L96.3498824,41.5424941 L85.5629412,41.5424941 C78.5505882,27.8236706 64.3912941,0.00367058824 64.3912941,0.00367058824 L75.0711765,0.00367058824 C75.0711765,0.00367058824 90.8424706,30.5154353 91.3349412,31.5676706" id="Fill-6"></path>
                    <path d="M33.3809412,11.9177882 C33.4222353,11.7923765 33.5614118,11.6241412 33.4849412,11.5675529 C33.4451765,11.5400235 33.2570588,11.5430824 33.1851765,11.5675529 C33.1087059,11.5950824 33.0934118,11.6287294 33.0582353,11.6822588 C32.3225882,12.7727294 33.8489412,13.4257882 34.3964706,14.2103765 C34.4805882,14.3327294 34.4805882,14.4703765 34.4912941,14.6126118 C34.4958824,14.6768471 34.5432941,14.7624941 34.6442353,14.7456706 C34.8262353,14.7150824 34.9409412,14.4596706 34.9241176,14.3663765 C34.762,13.5909647 33.8642353,13.2101412 33.4375294,12.5570824 C33.3182353,12.3750824 33.3014118,12.1380235 33.3809412,11.9177882" id="Fill-8"></path>
                    <path d="M35.4915294,11.8657882 C35.4349412,11.8413176 35.3921176,11.9330824 35.3569412,11.9988471 C35.1030588,12.5035529 34.6151765,12.8736706 34.7268235,13.4487294 C34.7925882,13.7836706 35.2254118,14.0283765 35.3431765,14.1614353 C35.3951765,14.2134353 35.4349412,14.2486118 35.4227059,14.3174353 C35.3768235,14.6126118 34.9271765,14.9919059 34.5922353,15.0576706 C34.2251765,15.1295529 34.2267059,14.4015529 33.9269412,14.5269647 C33.6287059,14.6554353 33.1392941,15.3849647 33.4451765,15.5547294 C34.3704706,16.0670824 34.6977647,16.2383765 35.4502353,16.3836706 C36.6798824,16.6237882 37.1234118,15.0439059 37.5638824,14.1996706 C37.6495294,14.0360235 37.9416471,13.9824941 37.9110588,13.8387294 C37.6632941,12.7054353 36.4902353,12.3307294 35.4915294,11.8657882 M36.816,14.1706118 C36.5988235,14.1507294 36.5682353,13.8708471 36.6049412,13.6521412 C36.6355294,13.4747294 36.8267059,13.2896706 36.9949412,13.4456706 C37.1234118,13.5664941 37.3130588,13.7010824 37.2763529,13.8647294 C37.2396471,14.0589647 36.9888235,14.1828471 36.816,14.1706118" id="Fill-10"></path>
                    <path d="M43.4062353,27.3893176 C42.3142353,24.7908471 39.572,23.6560235 37.6923529,21.6157882 C37.2947059,21.1844941 37.1065882,20.5283765 37.4354118,20.0160235 C37.648,19.6826118 37.986,19.4837882 38.3867059,19.5113176 C39.1147059,19.5602588 39.5949412,20.1353176 39.8335294,20.7990824 C39.6698824,20.7379059 39.5414118,20.8541412 39.4710588,20.9397882 C39.2722353,21.1829647 39.2951765,21.5668471 39.4985882,21.7794353 C39.8151765,22.1189647 40.3091765,22.2229647 40.6884706,21.8788471 C41.0983529,21.5041412 41.08,20.9244941 40.9377647,20.4335529 C40.4636471,18.7955529 38.61,17.6806118 37.0622353,18.5722588 C37.3818824,17.6102588 37.7565882,16.7537882 38.2062353,15.8086118 C38.2827059,15.6403765 38.5778824,15.6082588 38.7262353,15.4568471 C39.0290588,15.1448471 38.9204706,14.5040235 38.4907059,14.2944941 C38.2949412,14.1981412 38.0517647,14.2119059 37.9661176,14.3816706 C37.5103529,15.2916706 37.2289412,16.3714353 36.2164706,16.7430824 C35.0250588,17.1820235 34.0492941,16.0609647 32.8991765,15.8284941 C32.0901176,15.6633176 31.4783529,16.1772 30.7610588,16.4173176 C30.0391765,14.7150824 29.4564706,12.9516706 28.5847059,11.3167294 C28.3277647,10.8334353 28.1610588,10.3272 27.7878824,9.87143529 C27.5278824,9.55178824 27.3137647,9.28872941 26.9849412,9.0532 C26.7004706,8.85437647 26.1330588,8.59131765 25.8424706,9.03637647 C26.2508235,9.24590588 26.7692941,9.52731765 26.7096471,10.0228471 C26.6943529,10.1513176 26.6117647,10.2507294 26.442,10.1406118 C26.1697647,9.85155294 25.974,9.55790588 25.5870588,9.41108235 C25.3897647,9.33308235 25.1083529,9.24590588 24.9309412,9.41872941 C24.7902353,9.55790588 24.7076471,9.8592 24.8789412,9.97390588 C25.1068235,10.1207294 25.4249412,10.0121412 25.6742353,10.1757882 C25.9877647,10.3761412 26.2676471,10.6713176 26.26,11.0353176 C26.2554118,11.1117882 26.1177647,11.2677882 26.0550588,11.2157882 C25.9112941,11.1026118 25.8103529,10.8533176 25.6283529,10.6759059 C25.3530588,10.4097882 25.0135294,10.2813176 24.7489412,10.5581412 C24.3161176,11.0123765 24.9615294,12.0539059 25.4845882,12.5647294 C25.7858824,12.8599059 26.1728235,12.9899059 26.6025882,13.0266118 C26.7677647,14.3250824 27.1042353,15.6572 27.3718824,16.9357882 C26.9222353,16.5396706 26.5643529,16.1313176 26.1636471,15.7642588 C25.7644706,15.3987294 25.3744706,15.0087294 24.9676471,14.6386118 C24.5225882,14.2363765 24.1203529,13.8188471 23.5651765,13.5252 C23.0818824,13.2713176 22.62,13.0556706 22.0816471,13.1872 C21.9027059,13.2300235 21.5922353,13.4242588 21.6916471,13.4884941 C22.0372941,13.7148471 22.5389412,13.7255529 22.8677647,14.0299059 C23.0252941,14.1736706 23.0512941,14.6584941 22.8448235,14.5040235 C22.2865882,14.0864941 21.0156471,13.5083765 20.9667059,14.6447294 C20.9590588,14.8160235 21.2404706,14.6921412 21.5264706,14.7074353 C21.814,14.7227294 22.1367059,14.8252 22.334,14.9766118 C22.49,15.0928471 22.6689412,15.1693176 22.6934118,15.3727294 C22.7102353,15.5149647 22.5771765,15.6572 22.4884706,15.6128471 C22.1642353,15.4476706 21.9164706,15.1524941 21.5478824,15.1800235 C21.2450588,15.2014353 20.9988235,15.3941412 21.0921176,15.6495529 C21.4576471,16.6375529 22.7714118,17.5597882 23.7961176,17.0290824 C25.1634118,18.6120235 26.4144706,20.2852 27.9255294,21.7442588 C28.2574118,22.0654353 28.8982353,21.5989647 29.3907059,21.4521412 C29.2943529,21.7580235 29.3188235,22.0440235 29.4381176,22.3193176 C30.1370588,23.9741412 31.8821176,24.7709647 33.0169412,26.0862588 C32.4602353,25.8599059 31.8454118,25.7864941 31.2458824,25.8308471 C30.6356471,25.8736706 30.2854118,26.3921412 30.2655294,26.9396706 C29.4641176,25.6182588 28.7162353,24.2815529 27.6609412,23.1222588 C27.2648235,22.6863765 26.5750588,21.9644941 25.9158824,22.6175529 C25.8791765,22.6512 25.8623529,22.7246118 25.9174118,22.7475529 C26.3211765,22.8928471 26.7463529,23.0656706 26.8794118,23.5092 C26.9268235,23.6697882 26.8228235,23.8594353 26.7264706,23.7936706 C26.3227059,23.5107294 26.0305882,23.0427294 25.4387059,23.1620235 C25.1083529,23.2293176 24.9187059,23.7263765 25.2215294,23.9129647 C25.4494118,24.0536706 25.7782353,24.0368471 26.0244706,24.1622588 C26.1865882,24.2433176 26.6928235,24.5507294 26.6102353,24.9743765 C26.598,25.0279059 26.4985882,25.1456706 26.4236471,25.0967294 C26.2370588,24.9713176 25.6604706,24.1087294 25.1389412,24.5033176 C24.6571765,24.8688471 25.3224706,25.6350824 25.714,26.0464941 C26.1223529,26.4793176 26.702,26.8173176 27.3137647,26.5557882 C28.0616471,28.1463765 28.8492941,29.7155529 29.5910588,31.3076706 C30.784,30.5368471 32.0748235,29.1848471 33.6225882,29.7843765 C33.6424706,31.0216706 32.7385882,32.1366118 33.1668235,33.3784941 C33.5598824,34.5194353 34.814,34.9170824 35.854,35.3055529 C35.4349412,36.6759059 34.7375294,37.9101412 34.3276471,39.3141412 C34.1211765,40.0283765 34.2129412,40.9674353 35.0311765,41.2396706 C34.9730588,40.4902588 34.8017647,40.1706118 35.2192941,39.6903765 C35.3508235,39.5359059 35.6123529,39.6215529 35.5572941,39.8173176 C35.4441176,40.2424941 35.282,40.5866118 35.4854118,41.0806118 C35.6108235,41.3803765 35.8784706,41.6006118 36.1721176,41.5807294 C36.3648235,41.5700235 36.5147059,41.3559059 36.5422353,41.1830824 C36.5881176,40.8756706 36.2807059,40.8221412 36.2118824,40.5453176 C36.1338824,40.2317882 36.1155294,39.9488471 36.2776471,39.6383765 C36.3571765,39.4854353 36.4825882,39.3875529 36.6355294,39.3737882 C36.7058824,39.4028471 36.7334118,39.4150824 36.7487059,39.4456706 C36.8863529,39.6735529 36.5957647,39.8769647 36.6125882,40.1170824 C36.6294118,40.4397882 36.8557647,40.8527294 37.1478824,40.7288471 C37.9018824,40.4061412 37.9477647,39.4166118 37.9569412,38.6473176 C37.9615294,38.3032 37.7642353,37.9728471 37.3788235,37.9239059 C38.0012941,36.8028471 38.7935294,35.7888471 39.3762353,34.6448471 C38.35,33.9979059 36.8542353,33.4259059 36.7823529,32.1029647 C36.7395294,31.3596706 36.8985882,30.4313176 37.4522353,29.8547294 C38.1894118,30.4359059 38.9128235,31.0553176 39.8947059,31.2449647 C41.0172941,31.4652 42.1352941,31.1746118 42.9061176,30.3059059 C43.6601176,29.4570824 43.7931765,28.3100235 43.4062353,27.3893176 M35.6184706,17.6117882 C35.7515294,17.6530824 35.8937647,18.1226118 36.2761176,18.2786118 C36.2332941,18.3688471 36.1950588,18.4988471 36.1048235,18.4988471 C35.8417647,18.4988471 35.6658824,18.3030824 35.5236471,18.0797882 C35.3661176,17.8320235 35.5542353,17.5903765 35.6184706,17.6117882 M32.0564706,16.8730824 C32.0901176,16.8119059 32.2537647,16.7186118 32.2690588,16.8042588 C32.3271765,17.1162588 32.5535294,17.3334353 32.7125882,17.5582588 C32.7814118,17.6576706 32.4235294,17.8060235 32.2812941,17.6301412 C32.1008235,17.4114353 31.902,17.1468471 32.0564706,16.8730824 M30.8925882,17.6255529 C30.9017647,17.5766118 30.9461176,17.4374353 31.0776471,17.4404941 C31.2581176,17.4649647 31.1755294,17.6668471 31.2,17.7570824 C31.2550588,17.9620235 31.5487059,18.0583765 31.5181176,18.3137882 C31.512,18.3535529 31.4248235,18.3887294 31.3605882,18.4024941 C31.3085882,18.4132 31.2428235,18.3841412 31.2045882,18.3474353 C30.9843529,18.1333176 30.8268235,17.9161412 30.8925882,17.6255529 M29.7332941,18.5263765 C29.6965882,18.3856706 29.8541176,18.2159059 30.0330588,18.2877882 C29.9718824,18.3688471 30.16,18.6777882 30.2074118,18.7359059 C30.3374118,18.9087294 30.2961176,18.9301412 30.4903529,19.0142588 C30.4123529,19.2390824 30.1477647,19.2666118 30.03,19.1060235 C29.8984706,18.9255529 29.7883529,18.7374353 29.7332941,18.5263765 M30.29,20.0252 C30.316,19.9732 30.4322353,19.9089647 30.4628235,19.9915529 C30.5148235,20.1261412 30.576,20.2301412 30.6448235,20.3463765 C30.7396471,20.5039059 31.0470588,20.5237882 30.9537647,20.7654353 C30.9354118,20.8128471 30.8467059,20.8587294 30.7947059,20.8495529 C30.4322353,20.7792 30.1110588,20.3999059 30.29,20.0252 M30.7901176,21.8314353 C30.7518824,21.6433176 30.7702353,21.2579059 31.0241176,21.3664941 C31.1265882,21.4093176 31.0761176,21.6157882 31.1847059,21.7717882 C31.2841176,21.9124941 31.4248235,22.0639059 31.4156471,22.1373176 C31.3605882,22.5808471 30.8467059,22.1006118 30.7901176,21.8314353 M31.4462353,19.7009647 C31.3758824,19.5648471 31.2627059,19.4348471 31.2550588,19.2926118 C31.2428235,19.1794353 31.4554118,18.9362588 31.512,19.0677882 C31.6358824,19.3415529 31.6924706,19.6076706 32.0258824,19.7682588 C31.8912941,20.0817882 31.5884706,19.9716706 31.4462353,19.7009647 M32.0870588,21.2884941 C31.9004706,21.1294353 31.8392941,20.8357882 31.9172941,20.5803765 C31.9264706,20.5497882 31.9907059,20.5146118 32.0228235,20.5237882 C32.2507059,20.5895529 32.2507059,20.8419059 32.3470588,21.0132 C32.4128235,21.1370824 32.4785882,21.1309647 32.5657647,21.2686118 C32.4801176,21.5500235 32.2109412,21.4001412 32.0870588,21.2884941 M32.7752941,18.8613176 C32.5688235,18.6839059 32.4785882,18.4682588 32.5611765,18.2449647 C32.578,18.1899059 32.7385882,18.0859059 32.7752941,18.1822588 C32.8792941,18.4468471 32.9741176,18.7557882 33.2830588,18.8108471 C33.1943529,19.0907294 32.9741176,19.0280235 32.7752941,18.8613176 M33.2907059,20.5161412 C33.0674118,20.3035529 32.8991765,19.9395529 33.1270588,19.6413176 C33.1683529,19.5877882 33.2524706,19.6046118 33.2570588,19.6367294 C33.3014118,19.9716706 33.5476471,20.2133176 33.7036471,20.4564941 C33.8183529,20.6323765 33.4451765,20.6660235 33.2907059,20.5161412 M33.8397647,17.5444941 C33.7816471,17.3594353 33.6837647,17.1682588 34.0492941,17.0504941 C34.1242353,17.4374353 34.2190588,17.6515529 34.4561176,17.8916706 C34.4652941,17.9008471 34.3276471,17.9910824 34.2695294,17.9834353 C34.0722353,17.9559059 33.8963529,17.7295529 33.8397647,17.5444941 M34.2312941,19.3537882 C34.1471765,19.2008471 34.0661176,19.0387294 34.1563529,18.8919059 C34.1930588,18.8307294 34.346,18.7313176 34.3750588,18.8246118 C34.4637647,19.1366118 34.6212941,19.4333176 34.9164706,19.5143765 C34.7742353,19.8569647 34.3597647,19.5847294 34.2312941,19.3537882 M41.9028235,29.1481412 C41.6978824,29.4479059 41.4149412,29.6696706 41.0723529,29.7904941 C39.4649412,30.3579059 37.9294118,27.9506118 37.2427059,26.4089647 C36.4091765,24.5308471 35.5787059,22.7582588 34.8690588,20.8342588 C35.3278824,20.5069647 35.6811765,20.1184941 36.1690588,19.7728471 C35.6490588,21.2074353 36.6814118,22.6068471 37.7214118,23.5352 C39.0764706,24.7495529 40.5125882,25.7513176 41.7284706,27.1721412 C42.2117647,27.7334353 42.3264706,28.5302588 41.9028235,29.1481412" id="Fill-12"></path>
                    <path d="M60.8629412,3.15884706 C60.9057647,3.03190588 61.0434118,2.8652 60.9684706,2.80861176 C60.9287059,2.77955294 60.7390588,2.78261176 60.6671765,2.80861176 C60.5907059,2.83308235 60.5754118,2.86825882 60.5387059,2.92331765 C59.8076471,4.01072941 61.334,4.66837647 61.88,5.45143529 C61.9610588,5.57225882 61.9610588,5.70990588 61.9732941,5.85214118 C61.9778824,5.91790588 62.0252941,6.00202353 62.1262353,5.9852 C62.3112941,5.95461176 62.4244706,5.69767059 62.4061176,5.60743529 C62.2455294,4.83049412 61.3477647,4.44967059 60.9195294,3.79661176 C60.7987059,3.61461176 60.7864706,3.37908235 60.8629412,3.15884706" id="Fill-14"></path>
                    <path d="M62.9765882,3.10378824 C62.9215294,3.07778824 62.8741176,3.17108235 62.8404706,3.23837647 C62.5850588,3.74155294 62.0987059,4.1132 62.2103529,4.68825882 C62.2745882,5.02167059 62.7058824,5.26637647 62.8251765,5.39943529 C62.8756471,5.45449412 62.9184706,5.48661176 62.9077647,5.55543529 C62.8618824,5.85061176 62.4122353,6.22684706 62.0757647,6.29567059 C61.7087059,6.36755294 61.7102353,5.63802353 61.4104706,5.76496471 C61.1122353,5.89343529 60.6228235,6.62602353 60.9287059,6.79425882 C61.8524706,7.30355294 62.1812941,7.47637647 62.9322353,7.62014118 C64.1634118,7.85872941 64.6054118,6.28037647 65.0489412,5.43767059 C65.1345882,5.27402353 65.4251765,5.22049412 65.3945882,5.07825882 C65.1468235,3.94190588 63.9737647,3.56872941 62.9765882,3.10378824 M64.298,5.40708235 C64.0808235,5.39178824 64.0502353,5.10884706 64.0884706,4.89014118 C64.1190588,4.71272941 64.3102353,4.53072941 64.4769412,4.68367059 C64.6054118,4.80449412 64.792,4.93908235 64.7583529,5.10272941 C64.7185882,5.29696471 64.4769412,5.42390588 64.298,5.40708235" id="Fill-16"></path>
                    <path d="M70.8897647,18.6303765 C69.7992941,16.0319059 67.054,14.8955529 65.1743529,12.8553176 C64.7782353,12.4240235 64.5901176,11.7679059 64.9158824,11.2524941 C65.13,10.9190824 65.4710588,10.7248471 65.8717647,10.7508471 C66.5967059,10.7997882 67.0769412,11.3748471 67.314,12.0370824 C67.1534118,11.9774353 67.0234118,12.0921412 66.9530588,12.1808471 C66.7527059,12.4224941 66.7787059,12.8048471 66.9805882,13.0204941 C67.2971765,13.3584941 67.7927059,13.4640235 68.1704706,13.1183765 C68.5803529,12.7452 68.5635294,12.1640235 68.4212941,11.6730824 C67.9456471,10.0350824 66.0904706,8.92014118 64.5457647,9.81331765 C64.8608235,8.84825882 65.2355294,7.99331765 65.6882353,7.04814118 C65.7662353,6.88143529 66.0629412,6.84778824 66.2082353,6.69637647 C66.5110588,6.38437647 66.4009412,5.74355294 65.9742353,5.53402353 C65.7769412,5.43614118 65.5337647,5.45143529 65.4511765,5.61814118 C64.9923529,6.5312 64.7109412,7.61096471 63.6984706,7.98567059 C62.5070588,8.42308235 61.5343529,7.29896471 60.3827059,7.06802353 C59.5705882,6.90437647 58.9618824,7.41672941 58.2430588,7.65684706 C57.5227059,5.95461176 56.9384706,4.1912 56.0697647,2.55625882 C55.8097647,2.07296471 55.6430588,1.56672941 55.2714118,1.11096471 C55.0129412,0.792847059 54.7988235,0.528258824 54.4654118,0.292729412 C54.184,0.0923764706 53.6135294,-0.169152941 53.326,0.278964706 C53.7374118,0.485435294 54.2512941,0.768376471 54.1947059,1.25931765 C54.1778824,1.39237647 54.0937647,1.49025882 53.924,1.38167059 C53.6532941,1.08955294 53.456,0.797435294 53.0690588,0.650611765 C52.8717647,0.575670588 52.5918824,0.486964706 52.416,0.659788235 C52.2737647,0.798964706 52.1927059,1.09872941 52.3624706,1.21343529 C52.5857647,1.36178824 52.9069412,1.2532 53.1547059,1.41225882 C53.4758824,1.6172 53.7511765,1.90931765 53.7404706,2.27484706 C53.7389412,2.35131765 53.5997647,2.50578824 53.5401176,2.45684706 C53.3917647,2.33908235 53.2938824,2.09284706 53.1103529,1.91543529 C52.8350588,1.65084706 52.4955294,1.51931765 52.2309412,1.80072941 C51.7981176,2.25190588 52.4404706,3.29649412 52.9665882,3.80578824 C53.2694118,4.09790588 53.6532941,4.22943529 54.0815294,4.26614118 C54.2512941,5.56461176 54.5892941,6.89672941 54.8554118,8.17531765 C54.4042353,7.7792 54.0463529,7.36931765 53.6471765,7.00378824 C53.2449412,6.63672941 52.8564706,6.24672941 52.4511765,5.87814118 C52.0061176,5.47437647 51.6054118,5.05684706 51.0487059,4.76472941 C50.5654118,4.50931765 50.1035294,4.29672941 49.5636471,4.4252 C49.3847059,4.46955294 49.0757647,4.66378824 49.1736471,4.72955294 C49.5192941,4.95437647 50.0224706,4.96508235 50.3512941,5.27096471 C50.5088235,5.41472941 50.5348235,5.89802353 50.3283529,5.74355294 C49.7685882,5.32602353 48.5007059,4.74790588 48.4502353,5.88425882 C48.4425882,6.05708235 48.7224706,5.93014118 49.01,5.94543529 C49.2975294,5.96072941 49.6187059,6.06625882 49.8175294,6.21461176 C49.972,6.33237647 50.1509412,6.40884706 50.1754118,6.61531765 C50.1922353,6.75296471 50.0622353,6.89672941 49.9689412,6.85084706 C49.6477647,6.68567059 49.4,6.39202353 49.0283529,6.41955294 C48.7285882,6.44096471 48.4823529,6.63367059 48.5741176,6.88908235 C48.9411765,7.87861176 50.2534118,8.79931765 51.2796471,8.26861176 C52.6469412,9.85308235 53.8934118,11.5262588 55.4105882,12.9853176 C55.7394118,13.3034353 56.3802353,12.8384941 56.8742353,12.6901412 C56.7763529,12.9975529 56.8038824,13.2866118 56.9185882,13.5603765 C57.6221176,15.2136706 59.3656471,16.0135529 60.502,17.3288471 C59.9422353,17.1024941 59.3289412,17.0275529 58.7294118,17.0703765 C58.1191765,17.1132 57.7704706,17.6301412 57.7505882,18.1776706 C56.9476471,16.8577882 56.1982353,15.5226118 55.1429412,14.3617882 C54.7483529,13.9259059 54.0570588,13.2040235 53.3978824,13.8540235 C53.3611765,13.8922588 53.3443529,13.9672 53.4009412,13.9870824 C53.8031765,14.1339059 54.2314118,14.3067294 54.3629412,14.7502588 C54.4103529,14.9077882 54.3063529,15.1004941 54.21,15.0332 C53.8047059,14.7502588 53.5110588,14.2853176 52.9237647,14.4030824 C52.5918824,14.4703765 52.4022353,14.9674353 52.7065882,15.1540235 C52.9314118,15.2947294 53.2617647,15.2779059 53.5064706,15.4017882 C53.6716471,15.4843765 54.1717647,15.7917882 54.0907059,16.2154353 C54.08,16.2689647 53.9821176,16.3852 53.9056471,16.3362588 C53.7190588,16.2123765 53.1409412,15.3482588 52.6224706,15.7428471 C52.1407059,16.1099059 52.8044706,16.8761412 53.196,17.2875529 C53.6074118,17.7203765 54.184,18.0568471 54.7988235,17.7937882 C55.5405882,19.3889647 56.3312941,20.9550824 57.0730588,22.5487294 C58.2675294,21.7779059 59.5598824,20.4228471 61.1045882,21.0269647 C61.1229412,22.2627294 60.2190588,23.3746118 60.6472941,24.6164941 C61.0388235,25.7604941 62.296,26.1566118 63.3344706,26.5450824 C62.9169412,27.9154353 62.2195294,29.1496706 61.8111765,30.5536706 C61.6047059,31.2679059 61.6964706,32.2069647 62.5147059,32.4792 C62.4535294,31.7282588 62.2868235,31.4101412 62.6982353,30.9299059 C62.8312941,30.7769647 63.0943529,30.8595529 63.0408235,31.0568471 C62.9276471,31.4820235 62.7670588,31.8261412 62.9689412,32.3186118 C63.0912941,32.6199059 63.362,32.8416706 63.6556471,32.8217882 C63.8483529,32.8110824 63.9982353,32.5969647 64.0257647,32.4241412 C64.0701176,32.1152 63.7657647,32.0616706 63.6954118,31.7833176 C63.6143529,31.4713176 63.5944706,31.1868471 63.7596471,30.8763765 C63.8407059,30.7249647 63.9661176,30.6286118 64.1190588,30.6133176 C64.1909412,30.6423765 64.2138824,30.6530824 64.2307059,30.6852 C64.3698824,30.9115529 64.0777647,31.1164941 64.0945882,31.3581412 C64.1129412,31.6823765 64.3408235,32.0922588 64.6298824,31.9683765 C65.3823529,31.6456706 65.4297647,30.6576706 65.4389412,29.8868471 C65.442,29.5427294 65.2462353,29.2139059 64.8608235,29.1634353 C65.4832941,28.0454353 66.274,27.0283765 66.8551765,25.8843765 C65.8335294,25.2343765 64.3362353,24.6654353 64.2658824,23.3424941 C64.2230588,22.6007294 64.3821176,21.6723765 64.9342353,21.0942588 C65.6729412,21.6739059 66.3963529,22.2963765 67.3751765,22.4860235 C68.5008235,22.7047294 69.6188235,22.4156706 70.3911765,21.5454353 C71.1405882,20.6981412 71.2767059,19.5495529 70.8897647,18.6303765 M63.1004706,8.85131765 C63.232,8.89261176 63.3772941,9.36061176 63.7596471,9.51814118 C63.7168235,9.60990588 63.6785882,9.73837647 63.5883529,9.73837647 C63.3222353,9.73684706 63.1494118,9.54261176 63.0087059,9.31931765 C62.8496471,9.07155294 63.0347059,8.83143529 63.1004706,8.85131765 M59.5369412,8.11414118 C59.5736471,8.05143529 59.7357647,7.95967059 59.7525882,8.04531765 C59.8107059,8.35731765 60.034,8.57296471 60.1945882,8.79931765 C60.2664706,8.89414118 59.9070588,9.04402353 59.7617647,8.86814118 C59.5828235,8.65096471 59.3870588,8.38790588 59.5369412,8.11414118 M58.3745882,8.86814118 C58.3868235,8.81614118 58.4296471,8.67696471 58.5581176,8.68155294 C58.7401176,8.70755294 58.6575294,8.90790588 58.6835294,8.99508235 C58.7370588,9.20308235 59.0337647,9.29790588 59.0001176,9.55331765 C58.9955294,9.59155294 58.9068235,9.62672941 58.8425882,9.64049412 C58.7905882,9.65272941 58.7278824,9.6252 58.6881176,9.58543529 C58.4678824,9.37284706 58.3103529,9.15414118 58.3745882,8.86814118 M57.2122353,9.76437647 C57.1770588,9.6252 57.3376471,9.45696471 57.5181176,9.52731765 C57.4554118,9.60837647 57.642,9.91578824 57.6878824,9.97696471 C57.8209412,10.1482588 57.7811765,10.1681412 57.9738824,10.2537882 C57.8928235,10.4770824 57.6282353,10.5061412 57.5150588,10.3440235 C57.382,10.1650824 57.2703529,9.97849412 57.2122353,9.76437647 M57.772,11.2662588 C57.7964706,11.2157882 57.9157647,11.1484941 57.9463529,11.2310824 C57.9952941,11.3672 58.0595294,11.4696706 58.1283529,11.5859059 C58.2216471,11.7449647 58.5305882,11.7633176 58.4372941,12.0034353 C58.4189412,12.0523765 58.3287059,12.0967294 58.2797647,12.0890824 C57.9127059,12.0202588 57.5930588,11.6394353 57.772,11.2662588 M58.2736471,13.0709647 C58.2354118,12.8797882 58.2491765,12.4959059 58.5045882,12.6060235 C58.6085882,12.6503765 58.5581176,12.8553176 58.6697647,13.0143765 C58.7661176,13.1520235 58.9068235,13.3034353 58.8976471,13.3783765 C58.8425882,13.8203765 58.3302353,13.3416706 58.2736471,13.0709647 M58.9297647,10.9404941 C58.8578824,10.8043765 58.7462353,10.6728471 58.7355294,10.5321412 C58.7248235,10.4174353 58.9389412,10.1742588 58.9955294,10.3088471 C59.1163529,10.5795529 59.1775294,10.8472 59.5063529,11.0093176 C59.3702353,11.3182588 59.072,11.2112 58.9297647,10.9404941 M59.5675294,12.5295529 C59.384,12.3674353 59.3197647,12.0768471 59.4008235,11.8183765 C59.4084706,11.7893176 59.4711765,11.7541412 59.5032941,11.7633176 C59.7357647,11.8290824 59.7357647,12.0814353 59.8290588,12.2542588 C59.8963529,12.3766118 59.9605882,12.3704941 60.0508235,12.5096706 C59.9636471,12.7895529 59.6929412,12.6396706 59.5675294,12.5295529 M60.2588235,10.0993176 C60.0538824,9.92343529 59.9605882,9.70931765 60.0431765,9.48449412 C60.0615294,9.43096471 60.2205882,9.32543529 60.2572941,9.42331765 C60.3612941,9.68637647 60.4607059,9.99531765 60.7650588,10.0488471 C60.6778824,10.3302588 60.4561176,10.2706118 60.2588235,10.0993176 M60.7742353,11.7572 C60.5509412,11.5446118 60.3781176,11.1790824 60.6090588,10.8808471 C60.6503529,10.8273176 60.7329412,10.8456706 60.736,10.8777882 C60.7834118,11.2112 61.0311765,11.4543765 61.1887059,11.6944941 C61.3003529,11.8734353 60.9302353,11.9086118 60.7742353,11.7572 M61.3232941,8.78249412 C61.2651765,8.59896471 61.1688235,8.40931765 61.5343529,8.29002353 C61.6077647,8.67849412 61.6995294,8.89108235 61.9381176,9.13272941 C61.9503529,9.14037647 61.8081176,9.22908235 61.7515294,9.22296471 C61.5511765,9.19696471 61.3783529,8.96908235 61.3232941,8.78249412 M61.7132941,10.5933176 C61.6291765,10.4403765 61.5481176,10.2752 61.6398824,10.1314353 C61.6781176,10.0687294 61.8310588,9.97084706 61.8555294,10.0656706 C61.9472941,10.3776706 62.1048235,10.6728471 62.3984706,10.7554353 C62.2547059,11.0949647 61.8432941,10.8242588 61.7132941,10.5933176 M69.3863529,20.3892 C69.1829412,20.6874353 68.8969412,20.9107294 68.5558824,21.0315529 C66.9484706,21.6004941 65.4129412,19.1901412 64.7277647,17.6500235 C63.8927059,15.7719059 63.0607059,13.9977882 62.3510588,12.0768471 C62.8114118,11.7449647 63.1631765,11.3564941 63.6495294,11.0139059 C63.1310588,12.4484941 64.1664706,13.8463765 65.2034118,14.7747294 C66.56,15.9890824 67.9945882,16.9908471 69.2135294,18.4101412 C69.6937647,18.9744941 69.8069412,19.7697882 69.3863529,20.3892" id="Fill-18"></path>
                </g>
                <path d="M162.272118,29.1940235 L162.272118,31.8429647 L162.318,31.8429647 C163.007765,30.3732 163.897882,29.0150824 165.724,29.0150824 L166.393882,29.0150824 L166.393882,30.5964941 C164.121176,30.2844941 162.940471,32.7330824 162.272118,34.5133176 L162.272118,41.4828471 L160.536235,41.4828471 L160.536235,29.1940235 L162.272118,29.1940235" id="Fill-20" fill="#000000"></path>
                <path d="M10.9307059,28.3237882 L9.28352941,28.8361412 C8.70388235,26.8999059 7.90247059,25.2970824 5.67564706,25.2970824 C4.09576471,25.2970824 2.62752941,26.5664941 2.62752941,28.2580235 C2.62752941,32.5740235 11.0637647,30.8840235 11.0637647,36.9389647 C11.0637647,39.9672 8.81552941,41.8376706 5.89894118,41.8376706 C2.80494118,41.8376706 0.601058824,39.9457882 0,36.9389647 L1.75882353,36.5168471 C2.18094118,38.5662588 3.73941176,40.3449647 5.92188235,40.3449647 C7.70211765,40.3449647 9.23917647,38.9883765 9.23917647,37.1393176 C9.23917647,32.3323765 0.801411765,34.3359059 0.801411765,28.5256706 C0.801411765,25.6763765 3.02670588,23.8059059 5.78882353,23.8059059 C8.52647059,23.8059059 10.2852941,25.8308471 10.9307059,28.3237882" id="Fill-22" fill="#000000"></path>
                <path d="M17.0116471,25.2083765 L17.0116471,29.1924941 L19.7936471,29.1924941 L19.7936471,30.6622588 L17.0116471,30.6622588 L17.0116471,38.3857882 C17.0116471,39.5894353 16.9902353,40.3694353 18.4156471,40.3694353 C18.9035294,40.3694353 19.3715294,40.3235529 19.7936471,40.2103765 L19.7936471,41.4813176 C19.2384706,41.6801412 18.6588235,41.8376706 18.0577647,41.8376706 C15.1182353,41.8376706 15.2757647,39.8555529 15.2757647,37.6073176 L15.2757647,30.6622588 L13.4052941,30.6622588 L13.4052941,29.1924941 L15.2757647,29.1924941 L15.2757647,25.2083765 L17.0116471,25.2083765" id="Fill-24" fill="#000000"></path>
                <path d="M31.1541176,41.4828471 L29.2607059,41.4828471 L29.0848235,39.9228471 C28.0815294,40.9032 26.9696471,41.8392 25.5212941,41.8392 C23.6294118,41.8392 22.1152941,40.2577882 22.1152941,38.3215529 C22.1152941,34.8054353 25.8103529,34.0483765 28.5265882,33.3112 L29.0848235,33.1567294 L29.0848235,32.4669647 C29.0848235,31.0629647 28.1274118,30.3089647 26.7463529,30.3089647 C25.3882353,30.3089647 24.4537647,31.1975529 23.7395294,32.2436706 L22.5175294,31.3306118 C23.5407059,29.8623765 24.8758824,28.8376706 26.7463529,28.8376706 C28.4164706,28.8376706 30.8191765,29.8623765 30.8191765,32.6657882 L30.8191765,38.7650824 C30.8421176,39.6796706 30.7977647,40.6141412 31.1541176,41.4828471 M29.0848235,34.5806118 L28.3935294,34.7809647 C26.7463529,35.2703765 23.7395294,35.9372 23.7395294,38.1410824 C23.7395294,39.1657882 24.5409412,40.1904941 25.5885882,40.1904941 C26.9696471,40.1904941 28.2390588,39.2330824 29.0848235,38.1869647 L29.0848235,34.5806118" id="Fill-26" fill="#000000"></path>
                <path d="M50.44,25.2083765 L50.44,29.1924941 L53.222,29.1924941 L53.222,30.6622588 L50.44,30.6622588 L50.44,38.3857882 C50.44,39.5894353 50.4185882,40.3694353 51.8424706,40.3694353 C52.3318824,40.3694353 52.7998824,40.3235529 53.222,40.2103765 L53.222,41.4813176 C52.6668235,41.6801412 52.0887059,41.8376706 51.4861176,41.8376706 C48.5481176,41.8376706 48.7041176,39.8555529 48.7041176,37.6073176 L48.7041176,30.6622588 L46.8336471,30.6622588 L46.8336471,29.1924941 L48.7041176,29.1924941 L48.7041176,25.2083765 L50.44,25.2083765" id="Fill-28" fill="#000000"></path>
                <path d="M41.9762353,38.0309647 L41.9762353,32.3323765 C41.4424706,31.2633176 40.4407059,30.3502588 39.104,30.3502588 C36.6783529,30.3502588 36.166,33.6889647 36.166,35.5380235 C36.166,39.1443765 37.8804706,40.3235529 39.0825882,40.3235529 C40.3061176,40.3235529 41.4868235,39.0770824 41.9762353,38.0309647 M41.9762353,30.4619059 L41.9762353,24.1622588 L43.7121176,24.1622588 L43.7121176,41.4813176 L41.9762353,41.4813176 L41.9762353,40.0773176 C41.1518824,41.1020235 40.196,41.8376706 38.8363529,41.8376706 C37.1662353,41.8376706 34.3398824,40.2990824 34.3398824,35.5808471 C34.3398824,30.7509647 36.79,28.8361412 38.9051765,28.8361412 C40.0843529,28.8361412 41.1748235,29.6146118 41.9762353,30.4619059" id="Fill-30" fill="#000000"></path>
                <polygon id="Fill-32" fill="#000000" points="78.624 24.1622588 74.6612941 41.4813176 72.8810588 41.4813176 69.9415294 27.3235529 69.8971765 27.3235529 66.8031765 41.4813176 65.0229412 41.4813176 61.3936471 24.1622588 63.1295294 24.1622588 65.9788235 38.1410824 66.0231765 38.1410824 69.1401176 24.1622588 70.8545882 24.1622588 73.8155294 38.1410824 73.8598824 38.1410824 76.9095294 24.1622588"></polygon>
                <polygon id="Fill-34" fill="#000000" points="81.3387059 41.4828471 83.0745882 41.4828471 83.0745882 29.1940235 81.3387059 29.1940235"></polygon>
                <polygon id="Fill-36" fill="#000000" points="81.3387059 26.0755529 83.0745882 26.0755529 83.0745882 24.1622588 81.3387059 24.1622588"></polygon>
                <path d="M88.9582353,32.1304941 L88.9582353,41.4813176 L87.2208235,41.4813176 L87.2208235,29.1924941 L88.9582353,29.1924941 L88.9582353,30.4619059 C89.9798824,29.6390824 90.9388235,28.8361412 92.3397647,28.8361412 C94.0771765,28.8361412 95.4796471,29.7920235 95.4796471,32.9992 L95.4796471,41.4813176 L93.7452941,41.4813176 L93.7452941,33.4457882 C93.7452941,32.1534353 93.9655294,30.2615529 92.118,30.2615529 C91.0489412,30.2615529 89.648,31.3076706 88.9582353,32.1304941" id="Fill-37" fill="#000000"></path>
                <path d="M101.806824,25.2083765 L101.806824,29.1924941 L104.588824,29.1924941 L104.588824,30.6622588 L101.806824,30.6622588 L101.806824,38.3857882 C101.806824,39.5894353 101.783882,40.3694353 103.210824,40.3694353 C103.698706,40.3694353 104.165176,40.3235529 104.588824,40.2103765 L104.588824,41.4813176 C104.032118,41.6801412 103.454,41.8376706 102.851412,41.8376706 C99.9134118,41.8376706 100.069412,39.8555529 100.069412,37.6073176 L100.069412,30.6622588 L98.2004706,30.6622588 L98.2004706,29.1924941 L100.069412,29.1924941 L100.069412,25.2083765 L101.806824,25.2083765" id="Fill-38" fill="#000000"></path>
                <path d="M121.250235,29.1940235 L121.250235,31.8429647 L121.293059,31.8429647 C121.982824,30.3732 122.876,29.0150824 124.700588,29.0150824 L125.368941,29.0150824 L125.368941,30.5964941 C123.096235,30.2844941 121.917059,32.7330824 121.250235,34.5133176 L121.250235,41.4828471 L119.514353,41.4828471 L119.514353,29.1940235 L121.250235,29.1940235" id="Fill-39" fill="#000000"></path>
                <path d="M130.494,25.2083765 L130.494,29.1924941 L133.276,29.1924941 L133.276,30.6622588 L130.494,30.6622588 L130.494,38.3857882 C130.494,39.5894353 130.472588,40.3694353 131.896471,40.3694353 C132.385882,40.3694353 132.853882,40.3235529 133.276,40.2103765 L133.276,41.4813176 C132.719294,41.6801412 132.139647,41.8376706 131.540118,41.8376706 C128.600588,41.8376706 128.758118,39.8555529 128.758118,37.6073176 L128.758118,30.6622588 L126.887647,30.6622588 L126.887647,29.1924941 L128.758118,29.1924941 L128.758118,25.2083765 L130.494,25.2083765" id="Fill-40" fill="#000000"></path>
                <path d="M115.901882,35.6267294 L108.487294,35.6267294 C108.487294,39.1443765 109.98,40.3694353 111.760235,40.3694353 C113.052588,40.3694353 114.144588,39.3233176 114.767059,38.2542588 L116.013529,39.0770824 C115.345176,40.6584941 113.698,41.8392 111.582824,41.8392 C108.845176,41.8392 106.662706,39.9473176 106.662706,35.3376706 C106.662706,30.7280235 108.845176,28.8376706 111.582824,28.8376706 C115.123412,28.8376706 116.146588,32.6214353 115.901882,35.6267294 M108.533176,34.1584941 L114.077294,34.1584941 C114.121647,32.5755529 113.274353,30.3074353 111.449765,30.3074353 C109.490588,30.3074353 108.554588,32.4210824 108.533176,34.1584941" id="Fill-41" fill="#000000"></path>
                <path d="M138.064588,24.1622588 L138.064588,30.4619059 C139.089294,29.6390824 140.048235,28.8361412 141.449176,28.8361412 C143.186588,28.8361412 144.587529,29.7920235 144.587529,32.9992 L144.587529,41.4813176 L142.851647,41.4813176 L142.851647,33.4457882 C142.851647,32.1534353 143.076471,30.2615529 141.227412,30.2615529 C140.156824,30.2615529 138.755882,31.3076706 138.064588,32.1304941 L138.064588,41.4813176 L136.328706,41.4813176 L136.328706,24.1622588 L138.064588,24.1622588" id="Fill-42" fill="#000000"></path>
                <path d="M154.768824,38.5417882 L154.768824,29.1924941 L156.504706,29.1924941 L156.504706,41.4813176 L154.768824,41.4813176 L154.768824,40.2103765 C153.741059,41.0347294 152.786706,41.8376706 151.384235,41.8376706 C149.646824,41.8376706 148.245882,40.8802588 148.245882,37.6746118 L148.245882,29.1924941 L149.980235,29.1924941 L149.980235,37.2310824 C149.980235,38.5203765 150.203529,40.4137882 151.606,40.4137882 C152.673529,40.4137882 154.077529,39.3661412 154.768824,38.5417882" id="Fill-43" fill="#000000"></path>
            </g>
        </g>
    </g>
</svg>